<svg xmlns="http://www.w3.org/2000/svg" width="53" height="55" viewBox="0 0 53 55" fill="none">
  <path opacity="0.5" d="M10.4388 6.26329C11.1145 5.55745 12.0597 5.09912 13.8485 4.84704C15.6902 4.58808 18.1282 4.5835 21.6262 4.5835H31.3738C34.8718 4.5835 37.3098 4.58808 39.1515 4.84704C40.9403 5.09912 41.8855 5.55745 42.5612 6.26329C43.2347 6.96912 43.6742 7.95912 43.9149 9.83141C44.1622 11.7564 44.1667 14.3116 44.1667 17.9714V41.2502H16.3991C14.0052 41.2502 13.1705 41.2639 12.5279 41.406C11.395 41.6581 10.4079 42.2012 9.69017 42.9345C9.44725 43.182 9.328 43.3035 9.04754 44.0918C8.91369 44.4264 8.84105 44.7839 8.83333 45.146V17.9714C8.83333 14.3116 8.83775 11.7587 9.08508 9.83141C9.32579 7.96141 9.76525 6.96912 10.4388 6.26329Z" fill="#FF8282"/>
  <path d="M44.1667 41.2498H16.3991C14.0053 41.2498 13.1705 41.2636 12.5279 41.4057C11.395 41.6578 10.4079 42.2009 9.69017 42.9342C9.44725 43.1817 9.328 43.3032 9.04754 44.0915C8.76708 44.8775 8.81125 45.2121 8.90179 45.879L8.95038 46.2228C9.19329 47.7192 9.63496 48.5098 10.3107 49.0736C10.9887 49.6373 11.9383 50.0063 13.7336 50.2057C15.582 50.4119 18.031 50.4165 21.5423 50.4165H31.3252C34.8365 50.4165 37.2877 50.4142 39.1339 50.2057C40.9293 50.0063 41.8788 49.6373 42.5568 49.0736C42.9985 48.7069 43.3385 48.244 43.5881 47.5519H17.6667C17.2274 47.5519 16.8061 47.3708 16.4955 47.0485C16.1849 46.7262 16.0104 46.289 16.0104 45.8332C16.0104 45.3773 16.1849 44.9402 16.4955 44.6178C16.8061 44.2955 17.2274 44.1144 17.6667 44.1144H44.1115C44.1512 43.2825 44.1623 42.3361 44.1667 41.2498ZM16.0104 16.0415C16.0104 15.5857 16.1849 15.1485 16.4955 14.8262C16.8061 14.5038 17.2274 14.3228 17.6667 14.3228H35.3333C35.7726 14.3228 36.1939 14.5038 36.5045 14.8262C36.8151 15.1485 36.9896 15.5857 36.9896 16.0415C36.9896 16.4973 36.8151 16.9345 36.5045 17.2568C36.1939 17.5792 35.7726 17.7603 35.3333 17.7603H17.6667C17.2274 17.7603 16.8061 17.5792 16.4955 17.2568C16.1849 16.9345 16.0104 16.4973 16.0104 16.0415ZM17.6667 22.3436C17.2274 22.3436 16.8061 22.5247 16.4955 22.847C16.1849 23.1693 16.0104 23.6065 16.0104 24.0623C16.0104 24.5182 16.1849 24.9553 16.4955 25.2777C16.8061 25.6 17.2274 25.7811 17.6667 25.7811H28.7083C29.1476 25.7811 29.5689 25.6 29.8795 25.2777C30.1901 24.9553 30.3646 24.5182 30.3646 24.0623C30.3646 23.6065 30.1901 23.1693 29.8795 22.847C29.5689 22.5247 29.1476 22.3436 28.7083 22.3436H17.6667Z" fill="#FF8282"/>
</svg>